<svg width="10" height="10" viewBox="0 0 10 10" fill="none" xmlns="http://www.w3.org/2000/svg">
<path fill-rule="evenodd" clip-rule="evenodd" d="M1.40392 9.70493C1.11592 9.70493 0.827922 9.59543 0.608922 9.37493C0.169422 8.93543 0.169422 8.22443 0.608922 7.78493L7.79688 0.596959C8.23638 0.157459 8.94738 0.157459 9.38688 0.596959C9.82638 1.03646 9.82638 1.74746 9.38688 2.18693L2.19888 9.37493C1.97992 9.59543 1.69192 9.70493 1.40392 9.70493Z" fill="black"/>
<path fill-rule="evenodd" clip-rule="evenodd" d="M8.59407 9.70945C8.30607 9.70945 8.01807 9.59995 7.79907 9.37945L0.605016 2.18395C0.165516 1.74453 0.165516 1.03353 0.605016 0.594029C1.04602 0.154529 1.75701 0.154529 2.19507 0.594029L9.38908 7.78945C9.82858 8.22895 9.82858 8.93995 9.38908 9.37945C9.17008 9.59995 8.88057 9.70945 8.59407 9.70945Z" fill="black"/>
</svg>
