<svg width="600" height="411" viewBox="0 0 600 411" fill="none" xmlns="http://www.w3.org/2000/svg">
<g clip-path="url(#clip0_399_275)">
<path d="M589.27 372.891C585.165 387.132 573.179 397.101 560.676 405.569C558.93 406.752 557.184 407.907 555.437 409.036C555.425 409.041 555.413 409.052 555.401 409.057C555.317 409.111 555.232 409.165 555.154 409.22C554.794 409.452 554.433 409.685 554.075 409.914L554.272 410.003C554.272 410.003 554.465 410.105 554.254 410.019C554.191 409.993 554.125 409.969 554.062 409.943C546.799 407.013 539.406 403.868 533.84 398.38C528.065 392.681 524.691 383.742 527.818 376.256C528.229 375.275 528.748 374.343 529.365 373.478C529.619 373.115 529.892 372.767 530.177 372.427C531.901 370.322 534.156 368.714 536.708 367.769C539.26 366.824 542.017 366.576 544.697 367.05C547.377 367.524 549.882 368.703 551.955 370.466C554.028 372.23 555.594 374.513 556.491 377.082C557.41 368.53 550.358 361.365 543.571 356.079C536.781 350.796 529.066 345.042 527.753 336.537C527.02 331.805 528.666 327.219 531.663 323.537C531.756 323.426 531.849 323.314 531.944 323.205C535.593 318.917 540.726 316.164 546.316 315.495C556.727 314.413 566.84 319.924 574.404 327.163C586.578 338.809 593.937 356.699 589.27 372.891Z" fill="#F2F2F2"/>
<path d="M569.701 354.264C571.699 357.372 573.233 360.756 574.255 364.308C575.118 367.482 575.503 370.768 575.395 374.056C575.117 380.821 573.217 387.421 569.857 393.3C567.326 397.761 564.241 401.883 560.676 405.569C558.93 406.752 557.183 407.907 555.436 409.036C555.425 409.041 555.412 409.052 555.4 409.057C555.316 409.111 555.232 409.165 555.154 409.22C554.793 409.452 554.433 409.685 554.075 409.914C554.075 409.914 554.464 410.105 554.253 410.019C554.191 409.993 554.125 409.969 554.062 409.943C554.713 404.605 554.075 399.19 552.202 394.149C550.329 389.109 547.275 384.592 543.297 380.975C539.308 377.413 534.535 374.844 529.365 373.478C529.619 373.115 529.892 372.767 530.176 372.427C532.173 372.986 534.116 373.722 535.983 374.624C542.658 377.829 548.123 383.098 551.569 389.651C554.663 395.601 555.994 402.31 555.407 408.99C555.705 408.72 556.004 408.444 556.294 408.17C561.813 403.024 566.716 397.117 570.034 390.301C572.912 384.528 574.327 378.136 574.153 371.687C573.882 364.656 571.081 358.143 567.025 352.474C562.579 346.425 557.327 341.012 551.415 336.386C545.457 331.614 538.938 327.589 532.002 324.401C531.845 324.328 531.723 324.197 531.66 324.037C531.597 323.876 531.598 323.697 531.663 323.537C531.709 323.394 531.81 323.274 531.944 323.205C532.013 323.175 532.088 323.162 532.163 323.165C532.238 323.168 532.311 323.188 532.377 323.223C533.233 323.618 534.084 324.017 534.927 324.434C541.953 327.907 548.521 332.239 554.479 337.331C560.234 342.238 565.652 347.844 569.701 354.264Z" fill="white"/>
<path d="M500.302 9.2364e-09H7.08519C5.20656 0.00171052 3.40538 0.748761 2.07701 2.07717C0.748642 3.40558 0.00165018 5.2068 0 7.08542V341.303C0.00164804 343.181 0.748642 344.983 2.07701 346.311C3.40538 347.639 5.20656 348.386 7.08519 348.388H500.302C501.326 348.388 502.339 348.166 503.269 347.737C504.199 347.307 505.025 346.681 505.689 345.902C505.746 345.841 505.797 345.776 505.844 345.707C506.267 345.19 506.609 344.612 506.859 343.992C507.216 343.141 507.398 342.226 507.395 341.303V7.08546C507.393 5.20551 506.645 3.40326 505.315 2.07469C503.985 0.746122 502.182 -9.58603e-05 500.302 9.2364e-09ZM505.372 341.303C505.373 342.291 505.082 343.258 504.535 344.082C504.05 344.807 503.39 345.399 502.618 345.804C501.902 346.174 501.108 346.366 500.302 346.365H7.08519C5.74311 346.363 4.45648 345.829 3.50749 344.88C2.5585 343.931 2.02464 342.645 2.02301 341.303V7.08546C2.02464 5.74339 2.5585 4.45675 3.50749 3.50776C4.45648 2.55877 5.74311 2.0249 7.08519 2.02327H500.302C501.645 2.0231 502.934 2.55611 503.885 3.50525C504.835 4.4544 505.37 5.74207 505.372 7.08546V341.303Z" fill="#3F3D56"/>
<path d="M506.38 28.3979H1.00977V30.4235H506.38V28.3979Z" fill="#3F3D56"/>
<path d="M18.227 21.2681C21.583 21.2681 24.3036 18.5475 24.3036 15.1915C24.3036 11.8355 21.583 9.11487 18.227 9.11487C14.871 9.11487 12.1504 11.8355 12.1504 15.1915C12.1504 18.5475 14.871 21.2681 18.227 21.2681Z" fill="#3F3D56"/>
<path d="M35.6977 21.2681C39.0537 21.2681 41.7743 18.5475 41.7743 15.1915C41.7743 11.8355 39.0537 9.11487 35.6977 9.11487C32.3417 9.11487 29.6211 11.8355 29.6211 15.1915C29.6211 18.5475 32.3417 21.2681 35.6977 21.2681Z" fill="#3F3D56"/>
<path d="M53.1664 21.2681C56.5225 21.2681 59.243 18.5475 59.243 15.1915C59.243 11.8355 56.5225 9.11487 53.1664 9.11487C49.8104 9.11487 47.0898 11.8355 47.0898 15.1915C47.0898 18.5475 49.8104 21.2681 53.1664 21.2681Z" fill="#3F3D56"/>
<path d="M327.305 142.489C324.062 142.489 320.893 141.528 318.197 139.726C315.502 137.925 313.401 135.365 312.16 132.37C310.919 129.374 310.595 126.078 311.227 122.898C311.86 119.719 313.421 116.798 315.713 114.505C318.006 112.213 320.927 110.651 324.107 110.019C327.286 109.386 330.582 109.711 333.578 110.952C336.573 112.193 339.133 114.294 340.934 116.989C342.736 119.685 343.697 122.854 343.697 126.097C343.692 130.443 341.964 134.609 338.89 137.682C335.817 140.755 331.651 142.484 327.305 142.489ZM327.305 111.258C324.37 111.258 321.501 112.128 319.061 113.758C316.62 115.389 314.718 117.706 313.595 120.418C312.472 123.129 312.178 126.113 312.751 128.991C313.323 131.87 314.737 134.514 316.812 136.589C318.887 138.665 321.531 140.078 324.41 140.65C327.288 141.223 330.272 140.929 332.983 139.806C335.695 138.683 338.012 136.781 339.643 134.341C341.273 131.9 342.144 129.031 342.144 126.097C342.139 122.162 340.574 118.391 337.792 115.609C335.011 112.827 331.239 111.262 327.305 111.258Z" fill="#479F74"/>
<path d="M325.757 132.053C325.406 132.054 325.064 131.94 324.783 131.73L324.766 131.717L321.096 128.909C320.752 128.646 320.528 128.257 320.471 127.828C320.414 127.4 320.53 126.966 320.794 126.623C321.057 126.279 321.446 126.055 321.874 125.998C322.303 125.941 322.737 126.057 323.08 126.321L325.457 128.143L331.074 120.815C331.205 120.645 331.367 120.503 331.552 120.396C331.738 120.289 331.942 120.219 332.155 120.191C332.367 120.163 332.583 120.177 332.789 120.232C332.996 120.288 333.19 120.383 333.36 120.513L333.36 120.514L333.326 120.562L333.361 120.514C333.704 120.777 333.928 121.166 333.985 121.594C334.041 122.023 333.926 122.456 333.663 122.8L327.056 131.415C326.903 131.614 326.707 131.775 326.482 131.885C326.257 131.995 326.009 132.052 325.759 132.051L325.757 132.053Z" fill="#479F74"/>
<path d="M374.209 142.489C370.967 142.489 367.797 141.528 365.102 139.726C362.406 137.925 360.305 135.365 359.064 132.37C357.823 129.374 357.499 126.078 358.131 122.898C358.764 119.719 360.325 116.798 362.618 114.505C364.91 112.213 367.831 110.651 371.011 110.019C374.191 109.386 377.487 109.711 380.482 110.952C383.477 112.193 386.038 114.294 387.839 116.989C389.64 119.685 390.601 122.854 390.601 126.097C390.597 130.443 388.868 134.609 385.795 137.682C382.722 140.756 378.555 142.484 374.209 142.489ZM374.209 111.258C371.274 111.258 368.405 112.128 365.965 113.758C363.525 115.389 361.623 117.706 360.5 120.418C359.376 123.129 359.083 126.113 359.655 128.991C360.228 131.87 361.641 134.514 363.716 136.589C365.791 138.665 368.436 140.078 371.314 140.65C374.192 141.223 377.176 140.929 379.888 139.806C382.599 138.683 384.917 136.781 386.547 134.341C388.178 131.9 389.048 129.031 389.048 126.097C389.044 122.162 387.479 118.391 384.697 115.609C381.915 112.827 378.143 111.262 374.209 111.258Z" fill="#E6E6E6"/>
<path d="M380.108 131.768C379.911 131.965 379.645 132.075 379.366 132.075C379.088 132.075 378.821 131.965 378.625 131.768L374.691 127.835C374.603 127.747 374.484 127.698 374.36 127.698C374.236 127.698 374.117 127.747 374.03 127.835L370.096 131.768C369.899 131.965 369.632 132.075 369.354 132.075C369.076 132.075 368.809 131.965 368.612 131.768C368.415 131.571 368.305 131.304 368.305 131.026C368.305 130.748 368.415 130.481 368.612 130.284L372.546 126.351C372.633 126.263 372.682 126.144 372.682 126.02C372.682 125.896 372.633 125.777 372.546 125.689L368.612 121.756C368.415 121.559 368.305 121.292 368.305 121.014C368.305 120.736 368.415 120.469 368.612 120.272C368.809 120.075 369.076 119.965 369.354 119.965C369.632 119.965 369.899 120.075 370.096 120.272L374.029 124.206C374.117 124.293 374.236 124.342 374.36 124.342C374.484 124.342 374.603 124.293 374.691 124.206L378.624 120.272C378.821 120.075 379.088 119.965 379.366 119.965C379.644 119.965 379.911 120.075 380.108 120.272C380.305 120.469 380.416 120.736 380.416 121.014C380.416 121.292 380.305 121.559 380.108 121.756L376.175 125.69C376.087 125.777 376.038 125.896 376.038 126.02C376.038 126.144 376.087 126.263 376.175 126.351L380.108 130.284C380.305 130.481 380.415 130.748 380.415 131.026C380.415 131.304 380.305 131.571 380.108 131.768Z" fill="#E6E6E6"/>
<path d="M327.305 194.532C324.062 194.532 320.893 193.571 318.197 191.77C315.502 189.968 313.401 187.408 312.16 184.413C310.919 181.418 310.595 178.122 311.227 174.942C311.86 171.762 313.421 168.841 315.713 166.549C318.006 164.256 320.927 162.695 324.107 162.062C327.286 161.43 330.582 161.754 333.578 162.995C336.573 164.236 339.133 166.337 340.934 169.033C342.736 171.728 343.697 174.898 343.697 178.14C343.692 182.486 341.964 186.653 338.89 189.726C335.817 192.799 331.651 194.527 327.305 194.532ZM327.305 163.301C324.37 163.301 321.501 164.171 319.061 165.802C316.62 167.432 314.718 169.75 313.595 172.461C312.472 175.173 312.178 178.156 312.751 181.035C313.323 183.913 314.737 186.557 316.812 188.633C318.887 190.708 321.531 192.121 324.41 192.694C327.288 193.266 330.272 192.972 332.983 191.849C335.695 190.726 338.012 188.824 339.643 186.384C341.273 183.944 342.144 181.075 342.144 178.14C342.139 174.206 340.574 170.434 337.792 167.652C335.011 164.87 331.239 163.305 327.305 163.301Z" fill="#479F74"/>
<path d="M325.757 184.097C325.406 184.097 325.064 183.984 324.783 183.773L324.766 183.76L321.096 180.952C320.752 180.689 320.528 180.301 320.471 179.872C320.414 179.443 320.53 179.009 320.794 178.666C321.057 178.323 321.446 178.098 321.874 178.041C322.303 177.985 322.737 178.101 323.08 178.364L325.457 180.187L331.074 172.859C331.205 172.689 331.367 172.546 331.552 172.439C331.738 172.332 331.942 172.262 332.155 172.234C332.367 172.206 332.583 172.22 332.789 172.276C332.996 172.331 333.19 172.426 333.36 172.557L333.36 172.557L333.326 172.605L333.361 172.557C333.704 172.82 333.928 173.209 333.985 173.638C334.041 174.066 333.926 174.5 333.663 174.843L327.056 183.459C326.903 183.657 326.707 183.818 326.482 183.928C326.257 184.038 326.009 184.095 325.759 184.095L325.757 184.097Z" fill="#479F74"/>
<path d="M374.209 194.532C370.967 194.532 367.797 193.571 365.102 191.77C362.406 189.968 360.305 187.408 359.064 184.413C357.823 181.418 357.499 178.122 358.131 174.942C358.764 171.762 360.325 168.841 362.618 166.549C364.91 164.256 367.831 162.695 371.011 162.062C374.191 161.43 377.487 161.754 380.482 162.995C383.477 164.236 386.038 166.337 387.839 169.033C389.64 171.728 390.601 174.898 390.601 178.14C390.597 182.486 388.868 186.653 385.795 189.726C382.722 192.799 378.555 194.527 374.209 194.532ZM374.209 163.301C371.274 163.301 368.405 164.171 365.965 165.802C363.525 167.432 361.623 169.75 360.5 172.461C359.376 175.173 359.083 178.156 359.655 181.035C360.228 183.913 361.641 186.557 363.716 188.633C365.791 190.708 368.436 192.121 371.314 192.694C374.192 193.266 377.176 192.972 379.888 191.849C382.599 190.726 384.917 188.824 386.547 186.384C388.178 183.944 389.048 181.075 389.048 178.14C389.044 174.206 387.479 170.434 384.697 167.652C381.915 164.87 378.143 163.305 374.209 163.301Z" fill="#E6E6E6"/>
<path d="M380.108 183.812C379.911 184.008 379.645 184.118 379.366 184.118C379.088 184.118 378.821 184.008 378.624 183.812L374.691 179.878C374.603 179.791 374.484 179.741 374.36 179.741C374.236 179.741 374.117 179.791 374.03 179.878L370.096 183.812C369.899 184.008 369.632 184.119 369.354 184.119C369.076 184.119 368.809 184.008 368.612 183.812C368.415 183.615 368.305 183.348 368.305 183.07C368.305 182.791 368.415 182.524 368.612 182.328L372.546 178.394C372.633 178.306 372.682 178.187 372.682 178.064C372.682 177.94 372.633 177.821 372.546 177.733L368.612 173.799C368.415 173.602 368.305 173.336 368.305 173.057C368.305 172.779 368.415 172.512 368.612 172.315C368.809 172.119 369.076 172.008 369.354 172.008C369.632 172.008 369.899 172.119 370.096 172.315L374.029 176.249C374.117 176.337 374.236 176.386 374.36 176.386C374.484 176.386 374.603 176.337 374.691 176.249L378.624 172.316C378.821 172.119 379.088 172.008 379.366 172.008C379.644 172.008 379.911 172.119 380.108 172.316C380.305 172.512 380.415 172.779 380.415 173.058C380.415 173.336 380.305 173.603 380.108 173.8L376.175 177.733C376.087 177.821 376.038 177.94 376.038 178.064C376.038 178.188 376.087 178.307 376.175 178.394L380.108 182.328C380.305 182.525 380.415 182.792 380.415 183.07C380.415 183.348 380.305 183.615 380.108 183.812Z" fill="#E6E6E6"/>
<path d="M327.305 246.576C324.062 246.576 320.893 245.614 318.197 243.813C315.502 242.012 313.401 239.452 312.16 236.456C310.919 233.461 310.595 230.165 311.227 226.985C311.86 223.805 313.421 220.885 315.713 218.592C318.006 216.3 320.927 214.738 324.107 214.106C327.286 213.473 330.582 213.798 333.578 215.039C336.573 216.279 339.133 218.38 340.934 221.076C342.736 223.772 343.697 226.941 343.697 230.183C343.692 234.529 341.964 238.696 338.89 241.769C335.817 244.842 331.651 246.571 327.305 246.576ZM327.305 215.344C324.37 215.344 321.501 216.215 319.061 217.845C316.62 219.476 314.718 221.793 313.595 224.505C312.472 227.216 312.178 230.2 312.751 233.078C313.323 235.957 314.737 238.601 316.812 240.676C318.887 242.751 321.531 244.165 324.41 244.737C327.288 245.31 330.272 245.016 332.983 243.893C335.695 242.77 338.012 240.868 339.643 238.427C341.273 235.987 342.144 233.118 342.144 230.183C342.139 226.249 340.574 222.477 337.792 219.695C335.011 216.914 331.239 215.349 327.305 215.344Z" fill="#E6E6E6"/>
<path d="M325.757 236.14C325.406 236.141 325.064 236.027 324.783 235.816L324.766 235.803L321.096 232.996C320.752 232.733 320.528 232.344 320.471 231.915C320.414 231.486 320.53 231.053 320.794 230.709C321.057 230.366 321.446 230.141 321.874 230.085C322.303 230.028 322.737 230.144 323.08 230.407L325.457 232.23L331.074 224.902C331.205 224.732 331.367 224.59 331.552 224.482C331.738 224.375 331.942 224.306 332.155 224.278C332.367 224.25 332.583 224.264 332.789 224.319C332.996 224.374 333.19 224.47 333.36 224.6L333.36 224.6L333.326 224.649L333.361 224.6C333.704 224.864 333.928 225.253 333.985 225.681C334.041 226.11 333.926 226.543 333.663 226.887L327.056 235.502C326.903 235.701 326.707 235.861 326.482 235.972C326.257 236.082 326.009 236.139 325.759 236.138L325.757 236.14Z" fill="#E6E6E6"/>
<path d="M374.209 246.576C370.967 246.576 367.797 245.614 365.102 243.813C362.406 242.012 360.305 239.452 359.064 236.456C357.823 233.461 357.499 230.165 358.131 226.985C358.764 223.805 360.325 220.885 362.618 218.592C364.91 216.3 367.831 214.738 371.011 214.106C374.191 213.473 377.487 213.798 380.482 215.039C383.477 216.279 386.038 218.38 387.839 221.076C389.64 223.772 390.601 226.941 390.601 230.183C390.597 234.529 388.868 238.696 385.795 241.769C382.722 244.842 378.555 246.571 374.209 246.576ZM374.209 215.344C371.274 215.344 368.405 216.215 365.965 217.845C363.525 219.476 361.623 221.793 360.5 224.505C359.376 227.216 359.083 230.2 359.655 233.078C360.228 235.957 361.641 238.601 363.716 240.676C365.791 242.751 368.436 244.165 371.314 244.737C374.192 245.31 377.176 245.016 379.888 243.893C382.599 242.77 384.917 240.868 386.547 238.427C388.178 235.987 389.048 233.118 389.048 230.183C389.044 226.249 387.479 222.477 384.697 219.695C381.915 216.914 378.143 215.349 374.209 215.344Z" fill="#E6E6E6"/>
<path d="M380.108 235.855C379.911 236.051 379.644 236.162 379.366 236.162C379.088 236.162 378.821 236.051 378.624 235.855L374.691 231.921C374.603 231.834 374.484 231.785 374.36 231.785C374.236 231.785 374.117 231.834 374.03 231.921L370.096 235.855C369.899 236.052 369.632 236.162 369.354 236.162C369.076 236.162 368.809 236.052 368.612 235.855C368.415 235.658 368.305 235.391 368.305 235.113C368.305 234.835 368.415 234.568 368.612 234.371L372.546 230.437C372.633 230.35 372.682 230.231 372.682 230.107C372.682 229.983 372.633 229.864 372.546 229.776L368.612 225.843C368.415 225.646 368.305 225.379 368.305 225.101C368.305 224.822 368.415 224.556 368.612 224.359C368.809 224.162 369.076 224.052 369.354 224.052C369.632 224.052 369.899 224.162 370.096 224.359L374.029 228.293C374.117 228.38 374.236 228.429 374.36 228.429C374.484 228.429 374.603 228.38 374.691 228.292L378.624 224.359C378.821 224.163 379.088 224.053 379.366 224.053C379.644 224.053 379.91 224.164 380.107 224.36C380.303 224.557 380.414 224.823 380.414 225.101C380.414 225.379 380.304 225.646 380.108 225.843L376.175 229.776C376.087 229.864 376.038 229.983 376.038 230.107C376.038 230.231 376.087 230.35 376.175 230.438L380.108 234.371C380.305 234.568 380.415 234.835 380.415 235.113C380.415 235.391 380.305 235.658 380.108 235.855Z" fill="#E6E6E6"/>
<path d="M599.188 409.814H289.607C289.392 409.814 289.185 409.728 289.033 409.576C288.881 409.423 288.795 409.217 288.795 409.001C288.795 408.786 288.881 408.579 289.033 408.427C289.185 408.274 289.392 408.189 289.607 408.189H599.188C599.404 408.189 599.611 408.274 599.763 408.427C599.915 408.579 600.001 408.786 600.001 409.001C600.001 409.217 599.915 409.423 599.763 409.576C599.611 409.728 599.404 409.814 599.188 409.814Z" fill="#3F3D56"/>
<path d="M333.68 188.058C334.702 188.676 335.848 189.062 337.035 189.19C338.223 189.317 339.424 189.183 340.554 188.796C341.685 188.409 342.716 187.779 343.576 186.95C344.437 186.121 345.105 185.114 345.534 183.999L374.554 184.965L366.671 172.099L340.321 173.155C338.401 172.558 336.328 172.687 334.496 173.517C332.664 174.346 331.2 175.819 330.381 177.656C329.563 179.493 329.446 181.567 330.054 183.484C330.662 185.401 331.953 187.028 333.68 188.058V188.058Z" fill="#FFB8B8"/>
<path d="M497.306 250.916C498.093 250.018 498.674 248.958 499.008 247.811C499.342 246.664 499.42 245.458 499.237 244.277C499.054 243.097 498.614 241.971 497.949 240.979C497.283 239.987 496.409 239.153 495.386 238.535L501.42 210.133L487.372 215.641L483.796 241.768C482.873 243.554 482.637 245.617 483.133 247.566C483.629 249.515 484.822 251.215 486.488 252.342C488.153 253.47 490.174 253.948 492.168 253.685C494.162 253.422 495.99 252.437 497.306 250.916Z" fill="#FFB8B8"/>
<path d="M429.326 398.94L419.364 398.939L414.625 360.515L429.327 360.516L429.326 398.94Z" fill="#FFB8B8"/>
<path d="M431.865 408.596L399.744 408.595V408.189C399.744 406.547 400.067 404.921 400.696 403.404C401.324 401.888 402.245 400.509 403.406 399.348C404.567 398.188 405.945 397.267 407.462 396.638C408.979 396.01 410.605 395.687 412.246 395.687H412.247L431.865 395.688L431.865 408.596Z" fill="#2F2E41"/>
<path d="M478.078 398.94L468.116 398.939L463.377 360.515L478.079 360.516L478.078 398.94Z" fill="#FFB8B8"/>
<path d="M480.618 408.596L448.498 408.595V408.189C448.498 406.547 448.821 404.921 449.45 403.404C450.078 401.888 450.999 400.509 452.16 399.348C453.321 398.188 454.699 397.267 456.216 396.638C457.733 396.01 459.358 395.687 461 395.687H461.001L480.619 395.688L480.618 408.596Z" fill="#2F2E41"/>
<path d="M430.363 378.876L416.262 378.312C415.3 378.271 414.393 377.853 413.736 377.148C413.08 376.444 412.727 375.51 412.753 374.547L416.726 244.231L416.986 244.138C441.7 235.197 462.146 235.873 479.492 246.202L479.686 246.318L482.066 373.239C482.075 373.725 481.987 374.208 481.808 374.66C481.628 375.111 481.36 375.523 481.02 375.869C480.679 376.216 480.273 376.492 479.825 376.68C479.377 376.868 478.896 376.965 478.41 376.965H466.519C465.672 376.963 464.852 376.669 464.198 376.131C463.544 375.593 463.096 374.845 462.931 374.014L446.733 291.614C446.677 291.329 446.521 291.074 446.294 290.893C446.066 290.713 445.782 290.62 445.492 290.631C445.202 290.641 444.925 290.755 444.712 290.952C444.498 291.148 444.362 291.415 444.327 291.703L434.139 375.664C434.027 376.549 433.597 377.363 432.929 377.955C432.261 378.546 431.4 378.875 430.508 378.879C430.46 378.879 430.412 378.878 430.363 378.876Z" fill="#2F2E41"/>
<path d="M444.082 129.948C455.104 129.948 464.039 121.013 464.039 109.991C464.039 98.9695 455.104 90.0344 444.082 90.0344C433.06 90.0344 424.125 98.9695 424.125 109.991C424.125 121.013 433.06 129.948 444.082 129.948Z" fill="#FFB8B8"/>
<path d="M350.259 183.342C350.037 182.631 350.036 181.87 350.258 181.159L352.325 174.534C352.551 173.818 352.991 173.187 353.586 172.729C354.182 172.271 354.904 172.006 355.654 171.971L381.837 170.814L424.316 149.039C425.79 148.568 427.344 148.392 428.886 148.521C430.429 148.651 431.931 149.084 433.307 149.794C434.682 150.505 435.904 151.48 436.903 152.663C437.901 153.846 438.656 155.215 439.125 156.69C439.595 158.166 439.768 159.719 439.636 161.262C439.505 162.804 439.07 164.306 438.358 165.68C437.645 167.055 436.669 168.275 435.484 169.272C434.299 170.269 432.93 171.022 431.454 171.489L405.421 186.589C397.521 191.173 388.225 192.731 379.261 190.974L353.045 185.837C352.541 185.738 352.063 185.534 351.643 185.239C351.223 184.943 350.87 184.562 350.607 184.121C350.461 183.876 350.344 183.614 350.259 183.342Z" fill="#CCCCCC"/>
<path d="M496.453 232.528C495.753 232.78 494.993 232.813 494.273 232.622L487.566 230.838C486.84 230.644 486.192 230.231 485.708 229.655C485.225 229.08 484.93 228.37 484.863 227.622L482.591 201.512L459.026 160C458.492 158.546 458.251 157.002 458.315 155.455C458.379 153.909 458.747 152.39 459.398 150.985C460.05 149.581 460.972 148.319 462.111 147.271C463.251 146.223 464.586 145.41 466.04 144.879C467.494 144.347 469.038 144.108 470.585 144.174C472.131 144.239 473.65 144.609 475.054 145.263C476.457 145.916 477.718 146.839 478.765 147.98C479.811 149.121 480.622 150.457 481.152 151.911L497.347 177.277C502.263 184.975 504.216 194.196 502.843 203.226L498.828 229.638C498.751 230.146 498.567 230.631 498.29 231.064C498.012 231.496 497.647 231.865 497.217 232.146C496.978 232.303 496.722 232.431 496.453 232.528Z" fill="#CCCCCC"/>
<path d="M422.253 145.433C425.681 141.674 429.909 138.732 434.626 136.825C439.342 134.918 444.426 134.094 449.504 134.415C449.837 134.436 450.17 134.459 450.501 134.485H450.501C455.313 134.865 459.989 136.269 464.215 138.601C468.441 140.934 472.121 144.142 475.007 148.011C477.942 151.934 480.006 156.438 481.06 161.223C482.115 166.007 482.136 170.962 481.122 175.755C477.252 194.073 478.231 213.084 483.963 230.907L489.317 247.531C489.488 248.064 489.535 248.629 489.454 249.183C489.373 249.736 489.166 250.264 488.848 250.725C488.531 251.186 488.112 251.568 487.624 251.842C487.136 252.115 486.591 252.273 486.032 252.303L458.662 253.774L451.657 241.676V254.151L418.391 255.939C418.325 255.943 418.259 255.945 418.193 255.945C417.688 255.945 417.189 255.84 416.727 255.637C416.264 255.435 415.849 255.138 415.507 254.767C415.164 254.396 414.903 253.958 414.738 253.481C414.573 253.004 414.509 252.498 414.55 251.995L418.31 205.369L413.594 173.702C412.83 168.642 413.212 163.476 414.711 158.583C416.209 153.691 418.787 149.197 422.253 145.433Z" fill="#CCCCCC"/>
<path d="M457.952 129.043C456.104 130.107 448.8 130.811 448.28 128.744L448.269 128.699C447.907 127.184 448.208 125.602 448.312 124.048C448.415 122.495 448.263 120.787 447.205 119.645C445.232 117.515 441.722 118.644 438.87 118.106C437.199 117.733 435.721 116.764 434.713 115.38C433.705 113.996 433.235 112.292 433.393 110.587C433.434 110.264 433.497 109.941 433.569 109.618C433.747 108.799 433.733 107.95 433.528 107.137C433.324 106.325 432.933 105.571 432.388 104.935C431.842 104.298 431.157 103.797 430.385 103.47C429.614 103.144 428.777 103 427.94 103.051C425.057 103.216 421.945 104.09 419.56 101.954C417.716 100.303 417.265 96.0045 418.076 93.6652C419.438 89.7338 428.163 87.6757 431.972 86.5442C436.683 85.183 441.639 84.8887 446.478 85.6827C451.318 86.4768 455.919 88.3393 459.948 91.1348C462.354 92.8308 464.601 94.9618 465.627 97.7211C466.653 100.48 466.158 103.962 463.845 105.783C465.638 107.681 466.9 110.017 467.506 112.556C468.111 115.095 468.039 117.749 467.295 120.252C466.153 123.932 460.702 127.461 457.952 129.043Z" fill="#2F2E41"/>
<path d="M182.516 130.067H54.7344C53.0875 130.065 51.5087 129.41 50.3449 128.244C49.181 127.079 48.5273 125.5 48.5273 123.853C48.5273 122.206 49.181 120.627 50.3449 119.461C51.5087 118.296 53.0875 117.641 54.7344 117.639H182.516C184.163 117.641 185.742 118.296 186.906 119.461C188.07 120.627 188.723 122.206 188.723 123.853C188.723 125.5 188.07 127.079 186.906 128.244C185.742 129.41 184.163 130.065 182.516 130.067Z" fill="#479F74"/>
<path d="M261.408 135.367H42.0196C41.8041 135.367 41.5974 135.281 41.445 135.129C41.2927 134.976 41.207 134.769 41.207 134.554C41.207 134.338 41.2927 134.132 41.445 133.979C41.5974 133.827 41.8041 133.741 42.0196 133.741H261.408C261.623 133.741 261.83 133.827 261.982 133.979C262.135 134.132 262.22 134.338 262.22 134.554C262.22 134.769 262.135 134.976 261.982 135.129C261.83 135.281 261.623 135.367 261.408 135.367Z" fill="#3F3D56"/>
<path d="M182.516 182.111H54.7337C53.0856 182.111 51.505 181.456 50.3396 180.29C49.1742 179.125 48.5195 177.544 48.5195 175.896C48.5195 174.248 49.1742 172.668 50.3396 171.502C51.505 170.337 53.0856 169.682 54.7337 169.682H182.516C184.163 169.684 185.741 170.34 186.905 171.505C188.069 172.67 188.723 174.25 188.723 175.896C188.723 177.543 188.069 179.123 186.905 180.288C185.741 181.453 184.163 182.109 182.516 182.111Z" fill="#479F74"/>
<path d="M261.408 187.41H42.0196C41.8041 187.41 41.5974 187.325 41.445 187.172C41.2927 187.02 41.207 186.813 41.207 186.598C41.207 186.382 41.2927 186.175 41.445 186.023C41.5974 185.871 41.8041 185.785 42.0196 185.785H261.408C261.623 185.785 261.83 185.871 261.982 186.023C262.135 186.175 262.22 186.382 262.22 186.598C262.22 186.813 262.135 187.02 261.982 187.172C261.83 187.325 261.623 187.41 261.408 187.41Z" fill="#3F3D56"/>
<path d="M182.516 234.154H54.7337C53.0856 234.154 51.505 233.499 50.3396 232.334C49.1742 231.168 48.5195 229.588 48.5195 227.94C48.5195 226.292 49.1742 224.711 50.3396 223.546C51.505 222.38 53.0856 221.726 54.7337 221.726H182.516C184.163 221.727 185.741 222.383 186.905 223.548C188.069 224.713 188.723 226.293 188.723 227.94C188.723 229.587 188.069 231.166 186.905 232.331C185.741 233.496 184.163 234.152 182.516 234.154Z" fill="#F2F2F2"/>
<path d="M261.408 239.453H42.0196C41.8041 239.453 41.5974 239.368 41.445 239.215C41.2927 239.063 41.207 238.856 41.207 238.641C41.207 238.425 41.2927 238.219 41.445 238.066C41.5974 237.914 41.8041 237.828 42.0196 237.828H261.408C261.623 237.828 261.83 237.914 261.982 238.066C262.135 238.219 262.22 238.425 262.22 238.641C262.22 238.856 262.135 239.063 261.982 239.215C261.83 239.368 261.623 239.453 261.408 239.453Z" fill="#3F3D56"/>
</g>
<defs>
<clipPath id="clip0_399_275">
<rect width="600" height="410.053" fill="white"/>
</clipPath>
</defs>
</svg>
